HIERARCHY
ROOT Hips
{
  OFFSET -211.332 90.6431 1329.4
  CHANNELS 6 Xposition Yposition Zposition Zrotation Xrotation Yrotation
  JOINT Spine
  {
    OFFSET 0 8 0
    CHANNELS 6 Xposition Yposition Zposition Zrotation Xrotation Yrotation
    JOINT Spine1
    {
      OFFSET 0 8 0
      CHANNELS 6 Xposition Yposition Zposition Zrotation Xrotation Yrotation
      JOINT Spine2
      {
        OFFSET 0 8 0
        CHANNELS 6 Xposition Yposition Zposition Zrotation Xrotation Yrotation
        JOINT Spine3
        {
          OFFSET 0 8 0
          CHANNELS 6 Xposition Yposition Zposition Zrotation Xrotation Yrotation
          JOINT Neck
          {
            OFFSET 0 17 0
            CHANNELS 6 Xposition Yposition Zposition Zrotation Xrotation Yrotation
            JOINT Head
            {
              OFFSET 0 10.8 0
              CHANNELS 6 Xposition Yposition Zposition Zrotation Xrotation Yrotation
              End Site
              {
                OFFSET 0 20.25 0
              }
            }
          }
          JOINT LeftShoulder
          {
            OFFSET 5 17 0
            CHANNELS 6 Xposition Yposition Zposition Zrotation Xrotation Yrotation
            JOINT LeftShoulder2
            {
              OFFSET 6.45 0 0
              CHANNELS 6 Xposition Yposition Zposition Zrotation Xrotation Yrotation
              JOINT LeftArm
              {
                OFFSET 6.45 0 0
                CHANNELS 6 Xposition Yposition Zposition Zrotation Xrotation Yrotation
                JOINT LeftForeArm
                {
                  OFFSET 0 -32.4 -2
                  CHANNELS 6 Xposition Yposition Zposition Zrotation Xrotation Yrotation
                  JOINT LeftHand
                  {
                    OFFSET 0 -25.65 2
                    CHANNELS 6 Xposition Yposition Zposition Zrotation Xrotation Yrotation
                    JOINT LeftHandThumb1
                    {
                      OFFSET -0.5 -1.5 2.65
                      CHANNELS 6 Xposition Yposition Zposition Zrotation Xrotation Yrotation
                      JOINT LeftHandThumb2
                      {
                        OFFSET 0 -3.8 3.7
                        CHANNELS 6 Xposition Yposition Zposition Zrotation Xrotation Yrotation
                        JOINT LeftHandThumb3
                        {
                          OFFSET 0 -3 2.7
                          CHANNELS 6 Xposition Yposition Zposition Zrotation Xrotation Yrotation
                          End Site
                          {
                            OFFSET 0 -2.3 1.8
                          }
                        }
                      }
                    }
                    JOINT LeftHandIndex
                    {
                      OFFSET 0 -1.9 1.6
                      CHANNELS 6 Xposition Yposition Zposition Zrotation Xrotation Yrotation
                      JOINT LeftHandIndex1
                      {
                        OFFSET 0 -8.3 1.9
                        CHANNELS 6 Xposition Yposition Zposition Zrotation Xrotation Yrotation
                        JOINT LeftHandIndex2
                        {
                          OFFSET 0 -4.5 0
                          CHANNELS 6 Xposition Yposition Zposition Zrotation Xrotation Yrotation
                          JOINT LeftHandIndex3
                          {
                            OFFSET 0 -3.4 0
                            CHANNELS 6 Xposition Yposition Zposition Zrotation Xrotation Yrotation
                            End Site
                            {
                              OFFSET 0 -2.6 0
                            }
                          }
                        }
                      }
                    }
                    JOINT LeftHandMiddle
                    {
                      OFFSET -0.25 -2.2 0.4
                      CHANNELS 6 Xposition Yposition Zposition Zrotation Xrotation Yrotation
                      JOINT LeftHandMiddle1
                      {
                        OFFSET 0 -8.3 1
                        CHANNELS 6 Xposition Yposition Zposition Zrotation Xrotation Yrotation
                        JOINT LeftHandMiddle2
                        {
                          OFFSET 0 -4.65 0
                          CHANNELS 6 Xposition Yposition Zposition Zrotation Xrotation Yrotation
                          JOINT LeftHandMiddle3
                          {
                            OFFSET 0 -3.3 0
                            CHANNELS 6 Xposition Yposition Zposition Zrotation Xrotation Yrotation
                            End Site
                            {
                              OFFSET 0 -2.7 0
                            }
                          }
                        }
                      }
                    }
                    JOINT LeftHandRing
                    {
                      OFFSET -0.5 -2.15 -0.8
                      CHANNELS 6 Xposition Yposition Zposition Zrotation Xrotation Yrotation
                      JOINT LeftHandRing1
                      {
                        OFFSET 0 -7.75 -0.2
                        CHANNELS 6 Xposition Yposition Zposition Zrotation Xrotation Yrotation
                        JOINT LeftHandRing2
                        {
                          OFFSET 0 -3.8 0
                          CHANNELS 6 Xposition Yposition Zposition Zrotation Xrotation Yrotation
                          JOINT LeftHandRing3
                          {
                            OFFSET 0 -3.4 0
                            CHANNELS 6 Xposition Yposition Zposition Zrotation Xrotation Yrotation
                            End Site
                            {
                              OFFSET 0 -2.6 0
                            }
                          }
                        }
                      }
                    }
                    JOINT LeftHandPinky
                    {
                      OFFSET -0.75 -1.75 -1.85
                      CHANNELS 6 Xposition Yposition Zposition Zrotation Xrotation Yrotation
                      JOINT LeftHandPinky1
                      {
                        OFFSET 0 -7.15 -1
                        CHANNELS 6 Xposition Yposition Zposition Zrotation Xrotation Yrotation
                        JOINT LeftHandPinky2
                        {
                          OFFSET 0 -3 0
                          CHANNELS 6 Xposition Yposition Zposition Zrotation Xrotation Yrotation
                          JOINT LeftHandPinky3
                          {
                            OFFSET 0 -2.35 0
                            CHANNELS 6 Xposition Yposition Zposition Zrotation Xrotation Yrotation
                            End Site
                            {
                              OFFSET 0 -2.1 0
                            }
                          }
                        }
                      }
                    }
                  }
                }
              }
            }
          }
          JOINT RightShoulder
          {
            OFFSET -5 17 0
            CHANNELS 6 Xposition Yposition Zposition Zrotation Xrotation Yrotation
            JOINT RightShoulder2
            {
              OFFSET -6.45 0 0
              CHANNELS 6 Xposition Yposition Zposition Zrotation Xrotation Yrotation
              JOINT RightArm
              {
                OFFSET -6.45 0 0
                CHANNELS 6 Xposition Yposition Zposition Zrotation Xrotation Yrotation
                JOINT RightForeArm
                {
                  OFFSET 0 -32.4 -2
                  CHANNELS 6 Xposition Yposition Zposition Zrotation Xrotation Yrotation
                  JOINT RightHand
                  {
                    OFFSET 0 -25.65 2
                    CHANNELS 6 Xposition Yposition Zposition Zrotation Xrotation Yrotation
                    JOINT RightHandThumb1
                    {
                      OFFSET 0.5 -1.5 2.65
                      CHANNELS 6 Xposition Yposition Zposition Zrotation Xrotation Yrotation
                      JOINT RightHandThumb2
                      {
                        OFFSET 0 -3.8 3.7
                        CHANNELS 6 Xposition Yposition Zposition Zrotation Xrotation Yrotation
                        JOINT RightHandThumb3
                        {
                          OFFSET 0 -3 2.7
                          CHANNELS 6 Xposition Yposition Zposition Zrotation Xrotation Yrotation
                          End Site
                          {
                            OFFSET 0 -2.3 1.8
                          }
                        }
                      }
                    }
                    JOINT RightHandIndex
                    {
                      OFFSET 0 -1.9 1.6
                      CHANNELS 6 Xposition Yposition Zposition Zrotation Xrotation Yrotation
                      JOINT RightHandIndex1
                      {
                        OFFSET 0 -8.3 1.9
                        CHANNELS 6 Xposition Yposition Zposition Zrotation Xrotation Yrotation
                        JOINT RightHandIndex2
                        {
                          OFFSET 0 -4.5 0
                          CHANNELS 6 Xposition Yposition Zposition Zrotation Xrotation Yrotation
                          JOINT RightHandIndex3
                          {
                            OFFSET 0 -3.4 0
                            CHANNELS 6 Xposition Yposition Zposition Zrotation Xrotation Yrotation
                            End Site
                            {
                              OFFSET 0 -2.6 0
                            }
                          }
                        }
                      }
                    }
                    JOINT RightHandMiddle
                    {
                      OFFSET 0.25 -2.2 0.4
                      CHANNELS 6 Xposition Yposition Zposition Zrotation Xrotation Yrotation
                      JOINT RightHandMiddle1
                      {
                        OFFSET 0 -8.3 1
                        CHANNELS 6 Xposition Yposition Zposition Zrotation Xrotation Yrotation
                        JOINT RightHandMiddle2
                        {
                          OFFSET 0 -4.65 0
                          CHANNELS 6 Xposition Yposition Zposition Zrotation Xrotation Yrotation
                          JOINT RightHandMiddle3
                          {
                            OFFSET 0 -3.3 0
                            CHANNELS 6 Xposition Yposition Zposition Zrotation Xrotation Yrotation
                            End Site
                            {
                              OFFSET 0 -2.7 0
                            }
                          }
                        }
                      }
                    }
                    JOINT RightHandRing
                    {
                      OFFSET 0.5 -2.15 -0.8
                      CHANNELS 6 Xposition Yposition Zposition Zrotation Xrotation Yrotation
                      JOINT RightHandRing1
                      {
                        OFFSET 0 -7.75 -0.2
                        CHANNELS 6 Xposition Yposition Zposition Zrotation Xrotation Yrotation
                        JOINT RightHandRing2
                        {
                          OFFSET 0 -3.8 0
                          CHANNELS 6 Xposition Yposition Zposition Zrotation Xrotation Yrotation
                          JOINT RightHandRing3
                          {
                            OFFSET 0 -3.4 0
                            CHANNELS 6 Xposition Yposition Zposition Zrotation Xrotation Yrotation
                            End Site
                            {
                              OFFSET 0 -2.6 0
                            }
                          }
                        }
                      }
                    }
                    JOINT RightHandPinky
                    {
                      OFFSET 0.75 -1.75 -1.85
                      CHANNELS 6 Xposition Yposition Zposition Zrotation Xrotation Yrotation
                      JOINT RightHandPinky1
                      {
                        OFFSET 0 -7.15 -1
                        CHANNELS 6 Xposition Yposition Zposition Zrotation Xrotation Yrotation
                        JOINT RightHandPinky2
                        {
                          OFFSET 0 -3 0
                          CHANNELS 6 Xposition Yposition Zposition Zrotation Xrotation Yrotation
                          JOINT RightHandPinky3
                          {
                            OFFSET 0 -2.35 0
                            CHANNELS 6 Xposition Yposition Zposition Zrotation Xrotation Yrotation
                            End Site
                            {
                              OFFSET 0 -2.1 0
                            }
                          }
                        }
                      }
                    }
                  }
                }
              }
            }
          }
        }
      }
    }
  }
  JOINT LeftUpLeg
  {
    OFFSET 8 0 0
    CHANNELS 6 Xposition Yposition Zposition Zrotation Xrotation Yrotation
    JOINT LeftLeg
    {
      OFFSET 0 -45 -1
      CHANNELS 6 Xposition Yposition Zposition Zrotation Xrotation Yrotation
      JOINT LeftFoot
      {
        OFFSET 0 -41 -2
        CHANNELS 6 Xposition Yposition Zposition Zrotation Xrotation Yrotation
        JOINT LeftToeBase
        {
          OFFSET 0 -7.5 12.5
          CHANNELS 6 Xposition Yposition Zposition Zrotation Xrotation Yrotation
          JOINT LeftFootToe
          {
            OFFSET 0 0 4
            CHANNELS 6 Xposition Yposition Zposition Zrotation Xrotation Yrotation
            End Site
            {
              OFFSET 0 0 0
            }
          }
        }
      }
    }
  }
  JOINT RightUpLeg
  {
    OFFSET -8 0 0
    CHANNELS 6 Xposition Yposition Zposition Zrotation Xrotation Yrotation
    JOINT RightLeg
    {
      OFFSET 0 -45 -1
      CHANNELS 6 Xposition Yposition Zposition Zrotation Xrotation Yrotation
      JOINT RightFoot
      {
        OFFSET 0 -41 -2
        CHANNELS 6 Xposition Yposition Zposition Zrotation Xrotation Yrotation
        JOINT RightToeBase
        {
          OFFSET 0 -7.5 12.5
          CHANNELS 6 Xposition Yposition Zposition Zrotation Xrotation Yrotation
          JOINT RightFootToe
          {
            OFFSET 0 0 4
            CHANNELS 6 Xposition Yposition Zposition Zrotation Xrotation Yrotation
            End Site
            {
              OFFSET 0 0 0
            }
          }
        }
      }
    }
  }
}
MOTION
Frames:	3
Frame Time:	0.0111111
-183.996 72.5022 1359.12 -6.54618 5.12337 -179.085 0 8 0 5.18373 11.4276 -11.9767 8.52651e-14 8 0 0.439488 7.51637 0.644729 0 8 0 0.230111 3.76167 0.329253 0 8 0 0.22962 3.75349 0.32856 2.84217e-14 17 0 1.98938 4.38291 -0.851975 2.84217e-14 10.8 0 4.78336 10.1924 -2.24452 5 17 2.27374e-13 -6.66863 1.48554 -4.41488 6.45 0 -2.27374e-13 -1.00926 -0.0928105 0.16712 6.45 0 -4.54747e-13 57.136 -24.1726 1.69867 -1.7053e-13 -32.4 -2 2.8789 -46.3641 -9.39288 -1.13687e-13 -25.65 2 13.4868 -23.4504 -23.5649 -0.5 -1.5 2.65 -43.077 -31.5864 43.5499 0 -3.8 3.7 -0.160069 5.3446 -0.0124781 -2.27374e-13 -3 2.7 0.125042 36.3729 -0.187538 0 -1.9 1.6 -7.72434e-32 1.11319e-14 3.97569e-16 0 -8.3 1.9 -44.2873 11.4452 5.25627 0 -4.5 2.84217e-14 -89.0509 -0.0054234 0.00097064 2.27374e-13 -3.4 -8.52651e-14 -86.7149 -0.00721117 -0.00146985 -0.25 -2.2 0.4 -7.72434e-32 1.11319e-14 3.97569e-16 0 -8.3 1 -44.2493 10.92 5.56713 0 -4.65 0 -66.0852 -0.00865791 -0.0599748 -2.27374e-13 -3.3 5.68434e-14 -90.0002 3.56322e-14 -3.59552e-14 -0.5 -2.15 -0.8 -7.72434e-32 1.11319e-14 3.97569e-16 2.84217e-14 -7.75 -0.2 -39.1899 11.6569 5.73888 3.41061e-13 -3.8 -2.84217e-14 -67.3433 0.000697224 -0.0115302 0 -3.4 -2.84217e-14 -90.0002 0.00281162 -1.81391e-14 -0.75 -1.75 -1.85 -7.72434e-32 1.11319e-14 3.97569e-16 2.84217e-14 -7.15 -1 -27.1809 15.5972 5.1379 -2.27374e-13 -3 0 -78.8309 0.0231975 0.0439125 -2.27374e-13 -2.35 5.68434e-14 -64.0552 -0.0463953 0.0642514 -5 17 0 7.00981 -0.266425 -7.51142 -6.45 -5.68434e-14 -2.27374e-13 -1.66196 0.253336 0.347209 -6.45 0 0 -43.1706 -1.07646 6.4883 -8.52651e-14 -32.4 -2 108.339 -72.3445 97.2344 0 -25.65 2 -19.0797 18.0372 9.92175 0.5 -1.5 2.65 -2.92233 46.5769 -79.3669 -2.27374e-13 -3.8 3.7 0.704192 -2.88656 0.0433945 -2.27374e-13 -3 2.7 0.0513446 50.181 -0.0612421 0 -1.9 1.6 -7.95139e-16 -6.36111e-15 -1.59028e-15 -5.68434e-14 -8.3 1.9 18.1476 5.44356 -0.948618 -1.13687e-13 -4.5 1.13687e-13 12.2565 -0.125932 -0.0250235 -1.13687e-13 -3.4 -1.13687e-13 10.4737 -0.0951917 -0.000877469 0.25 -2.2 0.4 -7.95139e-16 -6.36111e-15 -1.59028e-15 -5.68434e-14 -8.3 1 22.898 4.97902 -1.4996 0 -4.65 0 30.1357 -0.05752 0.0158656 1.13687e-13 -3.3 -2.27374e-13 22.1652 -0.0291869 0.0218781 0.5 -2.15 -0.8 -7.95139e-16 -6.36111e-15 -1.59028e-15 -1.13687e-13 -7.75 -0.2 34.6055 8.57473 -4.12604 1.13687e-13 -3.8 0 44.5732 -0.0559232 0.102509 0 -3.4 -1.13687e-13 30.9537 0.00303806 0.0743184 0.75 -1.75 -1.85 -7.95139e-16 -6.36111e-15 -1.59028e-15 1.13687e-13 -7.15 -1 48.626 -9.40998 1.05185 -2.27374e-13 -3 0 22.0993 -0.113374 0.147211 2.27374e-13 -2.35 -1.13687e-13 17.2019 -0.0426589 0.112105 8 0 -2.27374e-13 -28.164 -50.6603 -35.5809 -5.68434e-14 -45 -1 -5.86171 62.145 10.4485 -5.68434e-14 -41 -2 -4.9366 -0.443361 -19.0758 0 -7.5 12.5 -1.37726e-16 -0.219987 1.59029e-14 0 0 4 -1.66441 -1.15299 77.16 -8 0 0 -22.7807 -55.0886 -22.4165 1.13687e-13 -45 -1 9.57995 75.7544 -11.7861 5.68434e-14 -41 -2 0.0660803 3.5985 2.83017 -2.84217e-14 -7.5 12.5 3.18055e-15 -17.1455 -0 0 0 4 3.55229 18.3633 29.1096 
-184.082 72.4149 1359.06 -6.37305 5.17834 -179.118 0 8 0 5.25555 11.4004 -12.0095 8.52651e-14 8 0 0.54588 7.55003 0.621889 0 8 -2.27374e-13 0.282919 3.77845 0.319635 -2.84217e-14 8 2.27374e-13 0.282302 3.77015 0.318961 2.84217e-14 17 0 2.2873 4.36002 -1.04411 0 10.8 0 5.50635 10.1182 -2.73049 5 17 0 -6.36156 1.52249 -4.50837 6.45 -5.68434e-14 0 -0.989139 -0.0916786 0.199103 6.45 0 -2.27374e-13 57.5229 -24.5276 0.543304 -2.27374e-13 -32.4 -2 3.56583 -45.8919 -8.8732 5.68434e-14 -25.65 2 11.8651 -22.7415 -23.8355 -0.5 -1.5 2.65 -42.1575 -32.1001 44.1909 -2.27374e-13 -3.8 3.7 -0.161102 5.55518 -0.00572638 -4.54747e-13 -3 2.7 0.0809655 39.4481 -0.205189 -5.68434e-14 -1.9 1.6 -3.18055e-15 1.27222e-14 3.97569e-16 -5.68434e-14 -8.3 1.9 -46.2108 11.7158 5.6641 0 -4.5 5.68434e-14 -88.9899 -0.00537508 0.00203438 2.27374e-13 -3.4 -1.42109e-13 -86.515 -0.013973 -0.00315511 -0.25 -2.2 0.4 -3.18055e-15 1.27222e-14 3.97569e-16 0 -8.3 1 -46.8621 10.8543 5.97827 0 -4.65 0 -65.316 -0.00240337 0.00720512 2.27374e-13 -3.3 5.68434e-14 -90.0002 9.6013e-14 -8.8658e-14 -0.5 -2.15 -0.8 -3.18055e-15 1.27222e-14 3.97569e-16 2.84217e-14 -7.75 -0.2 -42.7807 11.0135 6.13554 2.27374e-13 -3.8 0 -66.7973 -0.00349186 -0.0417153 -2.27374e-13 -3.4 -5.68434e-14 -90.0002 0.00281162 -7.46436e-14 -0.75 -1.75 -1.85 -3.18055e-15 1.27222e-14 3.97569e-16 0 -7.15 -1 -30.6025 14.6717 5.55871 -2.27374e-13 -3 0 -78.9558 0.0174606 0.0401766 0 -2.35 5.68434e-14 -64.2581 -0.0434424 0.0519402 -5 17 -2.27374e-13 7.23213 -0.462959 -7.82194 -6.45 -1.13687e-13 -2.27374e-13 -1.67699 0.275347 0.356207 -6.45 -5.68434e-14 0 -42.6023 -2.14981 7.70026 -1.13687e-13 -32.4 -2 106.151 -72.1873 94.3954 0 -25.65 2 -19.4195 19.1933 8.84226 0.5 -1.5 2.65 -6.5493 45.2389 -76.9878 2.27374e-13 -3.8 3.7 0.704194 -2.88656 0.0434257 -2.27374e-13 -3 2.7 0.0511658 49.3271 -0.0601544 0 -1.9 1.6 1.54487e-30 -1.59028e-14 5.56597e-15 0 -8.3 1.9 19.1836 6.5234 -1.20914 0 -4.5 0 12.906 -0.141105 -0.0215487 -1.13687e-13 -3.4 0 10.9413 -0.105883 0.00366519 0.25 -2.2 0.4 1.54487e-30 -1.59028e-14 5.56597e-15 5.68434e-14 -8.3 1 24.1188 5.14743 -1.61332 0 -4.65 0 30.8437 0.0258246 -0.0154212 -1.13687e-13 -3.3 0 22.5978 0.0106325 -0.0145537 0.5 -2.15 -0.8 1.54487e-30 -1.59028e-14 5.56597e-15 -1.13687e-13 -7.75 -0.2 35.5653 8.34777 -4.16391 0 -3.8 0 45.4773 -0.0312557 0.0834506 0 -3.4 -1.13687e-13 31.5267 0.0109165 0.0562076 0.75 -1.75 -1.85 1.54487e-30 -1.59028e-14 5.56597e-15 1.13687e-13 -7.15 -1 49.9494 -9.77698 1.1967 -2.27374e-13 -3 1.13687e-13 22.6428 -0.0684651 0.0977908 2.27374e-13 -2.35 0 17.5562 -0.0238657 0.073581 8 2.84217e-14 -4.54747e-13 -28.2002 -50.6471 -35.6392 -5.68434e-14 -45 -1 -5.87285 62.1432 10.4688 -5.68434e-14 -41 -2 -4.8829 -0.546916 -19.0157 -1.13687e-13 -7.5 12.5 2.42245e-16 -0.260969 9.54176e-15 0 0 4 -1.69175 -1.22769 77.1472 -8 0 -2.27374e-13 -22.7937 -55.1066 -22.4271 1.42109e-13 -45 -1 9.55508 75.763 -11.7601 0 -41 -2 0.0777668 3.42466 2.93559 5.68434e-14 -7.5 12.5 1.07313e-15 -17.1329 4.99237e-15 2.84217e-14 0 4 3.55797 18.3585 29.0849 
-184.163 72.3417 1359.04 -6.15569 5.23699 -179.157 2.84217e-14 8 2.27374e-13 5.36801 11.3736 -12.0499 5.68434e-14 8 2.27374e-13 0.654075 7.58948 0.594709 0 8 -2.27374e-13 0.336558 3.79814 0.307902 -2.84217e-14 8 0 0.335811 3.7897 0.307255 2.84217e-14 17 -2.27374e-13 2.58644 4.33961 -1.22449 0 10.8 -2.27374e-13 6.23061 10.0473 -3.18859 5 17 0 -6.03476 1.54397 -4.59263 6.45 -5.68434e-14 0 -0.959648 -0.0908699 0.229629 6.45 1.13687e-13 0 57.9181 -24.9156 -0.752909 -1.7053e-13 -32.4 -2 4.24162 -45.3319 -8.30209 -5.68434e-14 -25.65 2 9.60681 -21.7403 -24.299 -0.5 -1.5 2.65 -40.8862 -32.5637 44.938 0 -3.8 3.7 -0.162747 5.76619 0.00619598 -2.27374e-13 -3 2.7 0.0534627 41.9999 -0.220439 -5.68434e-14 -1.9 1.6 1.39038e-30 1.43125e-14 -5.56597e-15 0 -8.3 1.9 -46.8042 12.0313 5.89296 0 -4.5 5.68434e-14 -89.021 -0.00532639 0.00270761 4.54747e-13 -3.4 -1.13687e-13 -86.6133 -0.00867082 -0.0039902 -0.25 -2.2 0.4 1.39038e-30 1.43125e-14 -5.56597e-15 0 -8.3 1 -47.9642 10.9279 6.21086 2.27374e-13 -4.65 0 -65.4134 -0.00224128 0.0355872 2.27374e-13 -3.3 5.68434e-14 -90.0002 6.91771e-14 -7.45443e-14 -0.5 -2.15 -0.8 1.39038e-30 1.43125e-14 -5.56597e-15 5.68434e-14 -7.75 -0.2 -44.9086 10.633 6.38549 0 -3.8 0 -66.4719 -0.00351095 -0.0627948 0 -3.4 -8.52651e-14 -90.0002 0.00281162 -6.2816e-14 -0.75 -1.75 -1.85 1.39038e-30 1.43125e-14 -5.56597e-15 -5.68434e-14 -7.15 -1 -33.1231 13.9827 5.87725 -1.13687e-13 -3 -5.68434e-14 -78.8133 -0.00202493 -0.0285059 0 -2.35 0 -64.0589 0.0378768 -0.0226706 -5 17 -4.54747e-13 7.46253 -0.679502 -8.14866 -6.45 -1.13687e-13 -2.27374e-13 -1.68845 0.300924 0.372427 -6.45 5.68434e-14 0 -42.0022 -3.33925 8.85571 -5.68434e-14 -32.4 -2 104.163 -72.049 91.8634 0 -25.65 2 -19.8767 20.2536 8.02978 0.5 -1.5 2.65 -9.45522 44.0967 -75.187 0 -3.8 3.7 0.704195 -2.88656 0.0434542 -2.27374e-13 -3 2.7 0.0558965 48.5667 -0.0592275 0 -1.9 1.6 -2.38542e-15 -9.54166e-15 3.97569e-15 0 -8.3 1.9 19.7321 7.21852 -1.38789 0 -4.5 0 14.0596 -0.102766 -0.0121525 1.13687e-13 -3.4 -1.13687e-13 11.7854 -0.0751858 0.00408033 0.25 -2.2 0.4 -2.38542e-15 -9.54166e-15 3.97569e-15 0 -8.3 1 25.1544 5.21554 -1.70041 0 -4.65 -1.13687e-13 30.763 0.031326 -0.020269 0 -3.3 1.13687e-13 22.5495 0.0127071 -0.0183394 0.5 -2.15 -0.8 -2.38542e-15 -9.54166e-15 3.97569e-15 -1.13687e-13 -7.75 -0.2 36.4033 8.05633 -4.16004 1.13687e-13 -3.8 -2.27374e-13 46.1868 -0.0148422 0.0584684 0 -3.4 2.27374e-13 31.9801 0.0111002 0.0371353 0.75 -1.75 -1.85 -2.38542e-15 -9.54166e-15 3.97569e-15 1.13687e-13 -7.15 -1 50.9806 -10.0585 1.30167 0 -3 0 23.2224 -0.0236649 0.0366554 0 -2.35 -1.13687e-13 17.9343 -0.00759834 0.0274922 8 0 -2.27374e-13 -28.2363 -50.6339 -35.6974 -5.68434e-14 -45 -1 -5.884 62.1415 10.489 0 -41 -2 -4.8277 -0.59975 -18.9617 -1.13687e-13 -7.5 12.5 -6.3137e-16 -0.315392 -6.36121e-15 -2.27374e-13 0 4 -1.72968 -1.31773 77.1358 -8 -2.84217e-14 0 -22.8067 -55.1246 -22.4378 1.42109e-13 -45 -1 9.53019 75.7716 -11.734 2.84217e-14 -41 -2 0.0874819 3.27802 3.03856 0 -7.5 12.5 -9.79809e-16 -17.1221 -3.32806e-15 0 0 4 3.55798 18.3571 29.0762 
